<svg width="120" height="120" viewBox="0 0 120 120" fill="none" xmlns="http://www.w3.org/2000/svg">
  <!-- Background Circle -->
  <circle cx="60" cy="60" r="58" fill="#0d9488" stroke="#14b8a6" stroke-width="2"/>
  
  <!-- Crescent Moon -->
  <path d="M 45 30 Q 35 60 45 90 Q 55 80 55 60 Q 55 40 45 30 Z" fill="#ffffff" opacity="0.9"/>
  
  <!-- Star -->
  <path d="M 75 50 L 78 58 L 87 58 L 80 63 L 82 72 L 75 67 L 68 72 L 70 63 L 63 58 L 72 58 Z" fill="#ffffff" opacity="0.9"/>
  
  <!-- Book/Quran -->
  <rect x="50" y="55" width="30" height="35" rx="2" fill="#ffffff" opacity="0.95"/>
  <line x1="65" y1="55" x2="65" y2="90" stroke="#0d9488" stroke-width="2"/>
  <line x1="52" y1="62" x2="63" y2="62" stroke="#0d9488" stroke-width="1.5" opacity="0.7"/>
  <line x1="52" y1="68" x2="63" y2="68" stroke="#0d9488" stroke-width="1.5" opacity="0.7"/>
  <line x1="52" y1="74" x2="63" y2="74" stroke="#0d9488" stroke-width="1.5" opacity="0.7"/>
  <line x1="67" y1="62" x2="78" y2="62" stroke="#0d9488" stroke-width="1.5" opacity="0.7"/>
  <line x1="67" y1="68" x2="78" y2="68" stroke="#0d9488" stroke-width="1.5" opacity="0.7"/>
  <line x1="67" y1="74" x2="78" y2="74" stroke="#0d9488" stroke-width="1.5" opacity="0.7"/>
  
  <!-- Decorative border -->
  <circle cx="60" cy="60" r="56" fill="none" stroke="#ffffff" stroke-width="1" opacity="0.3"/>
</svg>
